STARTFONT 2.1
COMMENT  
COMMENT  Public domain font.  Share and enjoy.
COMMENT  
COMMENT  WARNING:  This bdf file was generated from a font server using
COMMENT  fstobdf.  The resulting font is subject to the same copyright,
COMMENT  license, and trademark restrictions as the original font.  The
COMMENT  authors and distributors of fstobdf disclaim all liability for
COMMENT  misuse of the program or its output.
COMMENT  
FONT -Misc-Fixed-Medium-R-SemiCondensed--13-120-75-75-C-60-ISO8859-1
SIZE 12 75 75
FONTBOUNDINGBOX 6 13 0 -2
STARTPROPERTIES 24
FONTNAME_REGISTRY ""
FOUNDRY "Misc"
FAMILY_NAME "Fixed"
WEIGHT_NAME "Medium"
SLANT "R"
SETWIDTH_NAME "SemiCondensed"
ADD_STYLE_NAME ""
PIXEL_SIZE 13
POINT_SIZE 120
RESOLUTION_X 75
RESOLUTION_Y 75
SPACING "C"
AVERAGE_WIDTH 60
CHARSET_REGISTRY "ISO8859"
CHARSET_ENCODING "1"
COPYRIGHT "Public domain font.  Share and enjoy."
FONT "-Misc-Fixed-Medium-R-SemiCondensed--13-120-75-75-C-60-ISO8859-1"
WEIGHT 10
RESOLUTION 107
X_HEIGHT 11
QUAD_WIDTH 6
DEFAULT_CHAR 0
FONT_ASCENT 11
FONT_DESCENT 2
ENDPROPERTIES
CHARS 224
STARTCHAR C000
ENCODING 0
SWIDTH 480 0
DWIDTH 6 0
BBX 4 11 1 -1
BITMAP
f0
f0
f0
f0
f0
f0
f0
f0
f0
f0
f0
ENDCHAR
STARTCHAR C001
ENCODING 1
SWIDTH 480 0
DWIDTH 6 0
BBX 5 5 0 1
BITMAP
20
70
f8
70
20
ENDCHAR
STARTCHAR C002
ENCODING 2
SWIDTH 480 0
DWIDTH 6 0
BBX 6 12 0 -2
BITMAP
54
a8
54
a8
54
a8
54
a8
54
a8
54
a8
ENDCHAR
STARTCHAR C003
ENCODING 3
SWIDTH 480 0
DWIDTH 6 0
BBX 4 9 0 -2
BITMAP
a0
a0
e0
a0
a0
70
20
20
20
ENDCHAR
STARTCHAR C004
ENCODING 4
SWIDTH 480 0
DWIDTH 6 0
BBX 4 9 0 -2
BITMAP
e0
80
c0
80
f0
40
60
40
40
ENDCHAR
STARTCHAR C005
ENCODING 5
SWIDTH 480 0
DWIDTH 6 0
BBX 5 9 0 -2
BITMAP
70
80
80
70
70
48
70
50
48
ENDCHAR
STARTCHAR C006
ENCODING 6
SWIDTH 480 0
DWIDTH 6 0
BBX 4 9 0 -2
BITMAP
80
80
80
e0
70
40
60
40
40
ENDCHAR
STARTCHAR C007
ENCODING 7
SWIDTH 480 0
DWIDTH 6 0
BBX 4 4 0 5
BITMAP
60
90
90
60
ENDCHAR
STARTCHAR C010
ENCODING 8
SWIDTH 480 0
DWIDTH 6 0
BBX 5 7 0 0
BITMAP
20
20
f8
20
20
00
f8
ENDCHAR
STARTCHAR C011
ENCODING 9
SWIDTH 480 0
DWIDTH 6 0
BBX 5 9 0 -2
BITMAP
88
c8
a8
98
88
40
40
40
78
ENDCHAR
STARTCHAR C012
ENCODING 10
SWIDTH 480 0
DWIDTH 6 0
BBX 5 9 0 -2
BITMAP
88
88
50
20
00
f8
20
20
20
ENDCHAR
STARTCHAR C013
ENCODING 11
SWIDTH 480 0
DWIDTH 6 0
BBX 3 8 0 3
BITMAP
20
20
20
20
20
20
20
e0
ENDCHAR
STARTCHAR C014
ENCODING 12
SWIDTH 480 0
DWIDTH 6 0
BBX 3 6 0 -2
BITMAP
e0
20
20
20
20
20
ENDCHAR
STARTCHAR C015
ENCODING 13
SWIDTH 480 0
DWIDTH 6 0
BBX 4 6 2 -2
BITMAP
f0
80
80
80
80
80
ENDCHAR
STARTCHAR C016
ENCODING 14
SWIDTH 480 0
DWIDTH 6 0
BBX 4 8 2 3
BITMAP
80
80
80
80
80
80
80
f0
ENDCHAR
STARTCHAR C017
ENCODING 15
SWIDTH 480 0
DWIDTH 6 0
BBX 6 13 0 -2
BITMAP
20
20
20
20
20
20
20
fc
20
20
20
20
20
ENDCHAR
STARTCHAR C020
ENCODING 16
SWIDTH 480 0
DWIDTH 6 0
BBX 6 1 0 7
BITMAP
fc
ENDCHAR
STARTCHAR C021
ENCODING 17
SWIDTH 480 0
DWIDTH 6 0
BBX 6 1 0 5
BITMAP
fc
ENDCHAR
STARTCHAR C022
ENCODING 18
SWIDTH 480 0
DWIDTH 6 0
BBX 6 1 0 3
BITMAP
fc
ENDCHAR
STARTCHAR C023
ENCODING 19
SWIDTH 480 0
DWIDTH 6 0
BBX 6 1 0 1
BITMAP
fc
ENDCHAR
STARTCHAR C024
ENCODING 20
SWIDTH 480 0
DWIDTH 6 0
BBX 6 1 0 -1
BITMAP
fc
ENDCHAR
STARTCHAR C025
ENCODING 21
SWIDTH 480 0
DWIDTH 6 0
BBX 4 13 2 -2
BITMAP
80
80
80
80
80
80
80
f0
80
80
80
80
80
ENDCHAR
STARTCHAR C026
ENCODING 22
SWIDTH 480 0
DWIDTH 6 0
BBX 3 13 0 -2
BITMAP
20
20
20
20
20
20
20
e0
20
20
20
20
20
ENDCHAR
STARTCHAR C027
ENCODING 23
SWIDTH 480 0
DWIDTH 6 0
BBX 6 8 0 3
BITMAP
20
20
20
20
20
20
20
fc
ENDCHAR
STARTCHAR C030
ENCODING 24
SWIDTH 480 0
DWIDTH 6 0
BBX 6 6 0 -2
BITMAP
fc
20
20
20
20
20
ENDCHAR
STARTCHAR C031
ENCODING 25
SWIDTH 480 0
DWIDTH 6 0
BBX 1 13 2 -2
BITMAP
80
80
80
80
80
80
80
80
80
80
80
80
80
ENDCHAR
STARTCHAR C032
ENCODING 26
SWIDTH 480 0
DWIDTH 6 0
BBX 5 8 0 0
BITMAP
08
10
20
40
20
10
08
f8
ENDCHAR
STARTCHAR C033
ENCODING 27
SWIDTH 480 0
DWIDTH 6 0
BBX 5 8 0 0
BITMAP
80
40
20
10
20
40
80
f8
ENDCHAR
STARTCHAR C034
ENCODING 28
SWIDTH 480 0
DWIDTH 6 0
BBX 5 6 0 0
BITMAP
f8
50
50
50
50
90
ENDCHAR
STARTCHAR C035
ENCODING 29
SWIDTH 480 0
DWIDTH 6 0
BBX 5 5 0 1
BITMAP
08
f8
20
f8
80
ENDCHAR
STARTCHAR C036
ENCODING 30
SWIDTH 480 0
DWIDTH 6 0
BBX 5 9 0 0
BITMAP
30
48
40
40
e0
40
40
48
b0
ENDCHAR
STARTCHAR C037
ENCODING 31
SWIDTH 480 0
DWIDTH 6 0
BBX 1 1 2 2
BITMAP
80
ENDCHAR
STARTCHAR space
ENCODING 32
SWIDTH 480 0
DWIDTH 6 0
BBX 0 0 0 0
BITMAP
ENDCHAR
STARTCHAR exclam
ENCODING 33
SWIDTH 480 0
DWIDTH 6 0
BBX 1 9 2 0
BITMAP
80
80
80
80
80
80
80
00
80
ENDCHAR
STARTCHAR quotedbl
ENCODING 34
SWIDTH 480 0
DWIDTH 6 0
BBX 3 3 1 6
BITMAP
a0
a0
a0
ENDCHAR
STARTCHAR numbersign
ENCODING 35
SWIDTH 480 0
DWIDTH 6 0
BBX 5 7 0 1
BITMAP
50
50
f8
50
f8
50
50
ENDCHAR
STARTCHAR dollar
ENCODING 36
SWIDTH 480 0
DWIDTH 6 0
BBX 5 9 0 0
BITMAP
20
78
a0
a0
70
28
28
f0
20
ENDCHAR
STARTCHAR percent
ENCODING 37
SWIDTH 480 0
DWIDTH 6 0
BBX 5 9 0 0
BITMAP
48
a8
50
10
20
40
50
a8
90
ENDCHAR
STARTCHAR ampersand
ENCODING 38
SWIDTH 480 0
DWIDTH 6 0
BBX 5 8 0 1
BITMAP
40
a0
a0
40
a0
98
90
68
ENDCHAR
STARTCHAR apostrophe
ENCODING 39
SWIDTH 480 0
DWIDTH 6 0
BBX 3 3 1 6
BITMAP
60
40
80
ENDCHAR
STARTCHAR parenleft
ENCODING 40
SWIDTH 480 0
DWIDTH 6 0
BBX 3 9 1 0
BITMAP
20
40
40
80
80
80
40
40
20
ENDCHAR
STARTCHAR parenright
ENCODING 41
SWIDTH 480 0
DWIDTH 6 0
BBX 3 9 1 0
BITMAP
80
40
40
20
20
20
40
40
80
ENDCHAR
STARTCHAR asterisk
ENCODING 42
SWIDTH 480 0
DWIDTH 6 0
BBX 5 7 0 1
BITMAP
20
a8
f8
70
f8
a8
20
ENDCHAR
STARTCHAR plus
ENCODING 43
SWIDTH 480 0
DWIDTH 6 0
BBX 5 5 0 2
BITMAP
20
20
f8
20
20
ENDCHAR
STARTCHAR comma
ENCODING 44
SWIDTH 480 0
DWIDTH 6 0
BBX 3 3 1 -1
BITMAP
60
40
80
ENDCHAR
STARTCHAR minus
ENCODING 45
SWIDTH 480 0
DWIDTH 6 0
BBX 5 1 0 4
BITMAP
f8
ENDCHAR
STARTCHAR period
ENCODING 46
SWIDTH 480 0
DWIDTH 6 0
BBX 3 3 1 -1
BITMAP
40
e0
40
ENDCHAR
STARTCHAR slash
ENCODING 47
SWIDTH 480 0
DWIDTH 6 0
BBX 5 9 0 0
BITMAP
08
08
10
10
20
40
40
80
80
ENDCHAR
STARTCHAR 0
ENCODING 48
SWIDTH 480 0
DWIDTH 6 0
BBX 5 9 0 0
BITMAP
20
50
88
88
88
88
88
50
20
ENDCHAR
STARTCHAR 1
ENCODING 49
SWIDTH 480 0
DWIDTH 6 0
BBX 5 9 0 0
BITMAP
20
60
a0
20
20
20
20
20
f8
ENDCHAR
STARTCHAR 2
ENCODING 50
SWIDTH 480 0
DWIDTH 6 0
BBX 5 9 0 0
BITMAP
70
88
88
08
10
20
40
80
f8
ENDCHAR
STARTCHAR 3
ENCODING 51
SWIDTH 480 0
DWIDTH 6 0
BBX 5 9 0 0
BITMAP
f8
08
10
20
70
08
08
88
70
ENDCHAR
STARTCHAR 4
ENCODING 52
SWIDTH 480 0
DWIDTH 6 0
BBX 5 9 0 0
BITMAP
10
10
30
50
50
90
f8
10
10
ENDCHAR
STARTCHAR 5
ENCODING 53
SWIDTH 480 0
DWIDTH 6 0
BBX 5 9 0 0
BITMAP
f8
80
80
b0
c8
08
08
88
70
ENDCHAR
STARTCHAR 6
ENCODING 54
SWIDTH 480 0
DWIDTH 6 0
BBX 5 9 0 0
BITMAP
70
88
80
80
f0
88
88
88
70
ENDCHAR
STARTCHAR 7
ENCODING 55
SWIDTH 480 0
DWIDTH 6 0
BBX 5 9 0 0
BITMAP
f8
08
10
10
20
20
40
40
40
ENDCHAR
STARTCHAR 8
ENCODING 56
SWIDTH 480 0
DWIDTH 6 0
BBX 5 9 0 0
BITMAP
70
88
88
88
70
88
88
88
70
ENDCHAR
STARTCHAR 9
ENCODING 57
SWIDTH 480 0
DWIDTH 6 0
BBX 5 9 0 0
BITMAP
70
88
88
88
78
08
08
88
70
ENDCHAR
STARTCHAR colon
ENCODING 58
SWIDTH 480 0
DWIDTH 6 0
BBX 3 8 1 -1
BITMAP
40
e0
40
00
00
40
e0
40
ENDCHAR
STARTCHAR semicolon
ENCODING 59
SWIDTH 480 0
DWIDTH 6 0
BBX 3 8 1 -1
BITMAP
40
e0
40
00
00
60
40
80
ENDCHAR
STARTCHAR less
ENCODING 60
SWIDTH 480 0
DWIDTH 6 0
BBX 5 9 0 0
BITMAP
08
10
20
40
80
40
20
10
08
ENDCHAR
STARTCHAR equal
ENCODING 61
SWIDTH 480 0
DWIDTH 6 0
BBX 5 4 0 2
BITMAP
f8
00
00
f8
ENDCHAR
STARTCHAR greater
ENCODING 62
SWIDTH 480 0
DWIDTH 6 0
BBX 5 9 0 0
BITMAP
80
40
20
10
08
10
20
40
80
ENDCHAR
STARTCHAR question
ENCODING 63
SWIDTH 480 0
DWIDTH 6 0
BBX 5 9 0 0
BITMAP
70
88
88
08
10
20
20
00
20
ENDCHAR
STARTCHAR at
ENCODING 64
SWIDTH 480 0
DWIDTH 6 0
BBX 5 9 0 0
BITMAP
70
88
88
98
a8
a8
b0
80
78
ENDCHAR
STARTCHAR A
ENCODING 65
SWIDTH 480 0
DWIDTH 6 0
BBX 5 9 0 0
BITMAP
20
50
88
88
88
f8
88
88
88
ENDCHAR
STARTCHAR B
ENCODING 66
SWIDTH 480 0
DWIDTH 6 0
BBX 5 9 0 0
BITMAP
f0
48
48
48
70
48
48
48
f0
ENDCHAR
STARTCHAR C
ENCODING 67
SWIDTH 480 0
DWIDTH 6 0
BBX 5 9 0 0
BITMAP
70
88
80
80
80
80
80
88
70
ENDCHAR
STARTCHAR D
ENCODING 68
SWIDTH 480 0
DWIDTH 6 0
BBX 5 9 0 0
BITMAP
f0
48
48
48
48
48
48
48
f0
ENDCHAR
STARTCHAR E
ENCODING 69
SWIDTH 480 0
DWIDTH 6 0
BBX 5 9 0 0
BITMAP
f8
80
80
80
f0
80
80
80
f8
ENDCHAR
STARTCHAR F
ENCODING 70
SWIDTH 480 0
DWIDTH 6 0
BBX 5 9 0 0
BITMAP
f8
80
80
80
f0
80
80
80
80
ENDCHAR
STARTCHAR G
ENCODING 71
SWIDTH 480 0
DWIDTH 6 0
BBX 5 9 0 0
BITMAP
70
88
80
80
80
98
88
88
70
ENDCHAR
STARTCHAR H
ENCODING 72
SWIDTH 480 0
DWIDTH 6 0
BBX 5 9 0 0
BITMAP
88
88
88
88
f8
88
88
88
88
ENDCHAR
STARTCHAR I
ENCODING 73
SWIDTH 480 0
DWIDTH 6 0
BBX 3 9 1 0
BITMAP
e0
40
40
40
40
40
40
40
e0
ENDCHAR
STARTCHAR J
ENCODING 74
SWIDTH 480 0
DWIDTH 6 0
BBX 5 9 0 0
BITMAP
38
10
10
10
10
10
10
90
60
ENDCHAR
STARTCHAR K
ENCODING 75
SWIDTH 480 0
DWIDTH 6 0
BBX 5 9 0 0
BITMAP
88
88
90
a0
c0
a0
90
88
88
ENDCHAR
STARTCHAR L
ENCODING 76
SWIDTH 480 0
DWIDTH 6 0
BBX 5 9 0 0
BITMAP
80
80
80
80
80
80
80
80
f8
ENDCHAR
STARTCHAR M
ENCODING 77
SWIDTH 480 0
DWIDTH 6 0
BBX 5 9 0 0
BITMAP
88
88
d8
a8
a8
88
88
88
88
ENDCHAR
STARTCHAR N
ENCODING 78
SWIDTH 480 0
DWIDTH 6 0
BBX 5 9 0 0
BITMAP
88
c8
c8
a8
a8
98
98
88
88
ENDCHAR
STARTCHAR O
ENCODING 79
SWIDTH 480 0
DWIDTH 6 0
BBX 5 9 0 0
BITMAP
70
88
88
88
88
88
88
88
70
ENDCHAR
STARTCHAR P
ENCODING 80
SWIDTH 480 0
DWIDTH 6 0
BBX 5 9 0 0
BITMAP
f0
88
88
88
f0
80
80
80
80
ENDCHAR
STARTCHAR Q
ENCODING 81
SWIDTH 480 0
DWIDTH 6 0
BBX 5 10 0 -1
BITMAP
70
88
88
88
88
88
88
a8
70
08
ENDCHAR
STARTCHAR R
ENCODING 82
SWIDTH 480 0
DWIDTH 6 0
BBX 5 9 0 0
BITMAP
f0
88
88
88
f0
a0
90
88
88
ENDCHAR
STARTCHAR S
ENCODING 83
SWIDTH 480 0
DWIDTH 6 0
BBX 5 9 0 0
BITMAP
70
88
80
80
70
08
08
88
70
ENDCHAR
STARTCHAR T
ENCODING 84
SWIDTH 480 0
DWIDTH 6 0
BBX 5 9 0 0
BITMAP
f8
20
20
20
20
20
20
20
20
ENDCHAR
STARTCHAR U
ENCODING 85
SWIDTH 480 0
DWIDTH 6 0
BBX 5 9 0 0
BITMAP
88
88
88
88
88
88
88
88
70
ENDCHAR
STARTCHAR V
ENCODING 86
SWIDTH 480 0
DWIDTH 6 0
BBX 5 9 0 0
BITMAP
88
88
88
88
50
50
50
20
20
ENDCHAR
STARTCHAR W
ENCODING 87
SWIDTH 480 0
DWIDTH 6 0
BBX 5 9 0 0
BITMAP
88
88
88
88
a8
a8
a8
d8
88
ENDCHAR
STARTCHAR X
ENCODING 88
SWIDTH 480 0
DWIDTH 6 0
BBX 5 9 0 0
BITMAP
88
88
50
50
20
50
50
88
88
ENDCHAR
STARTCHAR Y
ENCODING 89
SWIDTH 480 0
DWIDTH 6 0
BBX 5 9 0 0
BITMAP
88
88
50
50
20
20
20
20
20
ENDCHAR
STARTCHAR Z
ENCODING 90
SWIDTH 480 0
DWIDTH 6 0
BBX 5 9 0 0
BITMAP
f8
08
10
10
20
40
40
80
f8
ENDCHAR
STARTCHAR bracketleft
ENCODING 91
SWIDTH 480 0
DWIDTH 6 0
BBX 3 9 1 0
BITMAP
e0
80
80
80
80
80
80
80
e0
ENDCHAR
STARTCHAR backslash
ENCODING 92
SWIDTH 480 0
DWIDTH 6 0
BBX 5 9 0 0
BITMAP
80
80
40
40
20
10
10
08
08
ENDCHAR
STARTCHAR bracketright
ENCODING 93
SWIDTH 480 0
DWIDTH 6 0
BBX 3 9 1 0
BITMAP
e0
20
20
20
20
20
20
20
e0
ENDCHAR
STARTCHAR asciicircum
ENCODING 94
SWIDTH 480 0
DWIDTH 6 0
BBX 5 3 0 6
BITMAP
20
50
88
ENDCHAR
STARTCHAR underscore
ENCODING 95
SWIDTH 480 0
DWIDTH 6 0
BBX 5 1 0 -1
BITMAP
f8
ENDCHAR
STARTCHAR grave
ENCODING 96
SWIDTH 480 0
DWIDTH 6 0
BBX 3 3 2 6
BITMAP
c0
40
20
ENDCHAR
STARTCHAR a
ENCODING 97
SWIDTH 480 0
DWIDTH 6 0
BBX 5 6 0 0
BITMAP
70
08
78
88
88
78
ENDCHAR
STARTCHAR b
ENCODING 98
SWIDTH 480 0
DWIDTH 6 0
BBX 5 9 0 0
BITMAP
80
80
80
f0
88
88
88
88
f0
ENDCHAR
STARTCHAR c
ENCODING 99
SWIDTH 480 0
DWIDTH 6 0
BBX 5 6 0 0
BITMAP
70
88
80
80
88
70
ENDCHAR
STARTCHAR d
ENCODING 100
SWIDTH 480 0
DWIDTH 6 0
BBX 5 9 0 0
BITMAP
08
08
08
78
88
88
88
88
78
ENDCHAR
STARTCHAR e
ENCODING 101
SWIDTH 480 0
DWIDTH 6 0
BBX 5 6 0 0
BITMAP
70
88
f8
80
88
70
ENDCHAR
STARTCHAR f
ENCODING 102
SWIDTH 480 0
DWIDTH 6 0
BBX 5 9 0 0
BITMAP
30
48
40
40
f0
40
40
40
40
ENDCHAR
STARTCHAR g
ENCODING 103
SWIDTH 480 0
DWIDTH 6 0
BBX 5 8 0 -2
BITMAP
70
88
88
88
78
08
88
70
ENDCHAR
STARTCHAR h
ENCODING 104
SWIDTH 480 0
DWIDTH 6 0
BBX 5 9 0 0
BITMAP
80
80
80
b0
c8
88
88
88
88
ENDCHAR
STARTCHAR i
ENCODING 105
SWIDTH 480 0
DWIDTH 6 0
BBX 3 8 1 0
BITMAP
40
00
c0
40
40
40
40
e0
ENDCHAR
STARTCHAR j
ENCODING 106
SWIDTH 480 0
DWIDTH 6 0
BBX 4 10 0 -2
BITMAP
10
00
30
10
10
10
10
90
90
60
ENDCHAR
STARTCHAR k
ENCODING 107
SWIDTH 480 0
DWIDTH 6 0
BBX 5 9 0 0
BITMAP
80
80
80
90
a0
c0
a0
90
88
ENDCHAR
STARTCHAR l
ENCODING 108
SWIDTH 480 0
DWIDTH 6 0
BBX 3 9 1 0
BITMAP
c0
40
40
40
40
40
40
40
e0
ENDCHAR
STARTCHAR m
ENCODING 109
SWIDTH 480 0
DWIDTH 6 0
BBX 5 6 0 0
BITMAP
d0
a8
a8
a8
a8
88
ENDCHAR
STARTCHAR n
ENCODING 110
SWIDTH 480 0
DWIDTH 6 0
BBX 5 6 0 0
BITMAP
b0
c8
88
88
88
88
ENDCHAR
STARTCHAR o
ENCODING 111
SWIDTH 480 0
DWIDTH 6 0
BBX 5 6 0 0
BITMAP
70
88
88
88
88
70
ENDCHAR
STARTCHAR p
ENCODING 112
SWIDTH 480 0
DWIDTH 6 0
BBX 5 8 0 -2
BITMAP
f0
88
88
88
f0
80
80
80
ENDCHAR
STARTCHAR q
ENCODING 113
SWIDTH 480 0
DWIDTH 6 0
BBX 5 8 0 -2
BITMAP
78
88
88
88
78
08
08
08
ENDCHAR
STARTCHAR r
ENCODING 114
SWIDTH 480 0
DWIDTH 6 0
BBX 5 6 0 0
BITMAP
b0
c8
80
80
80
80
ENDCHAR
STARTCHAR s
ENCODING 115
SWIDTH 480 0
DWIDTH 6 0
BBX 5 6 0 0
BITMAP
70
88
60
10
88
70
ENDCHAR
STARTCHAR t
ENCODING 116
SWIDTH 480 0
DWIDTH 6 0
BBX 5 8 0 0
BITMAP
40
40
f0
40
40
40
48
30
ENDCHAR
STARTCHAR u
ENCODING 117
SWIDTH 480 0
DWIDTH 6 0
BBX 5 6 0 0
BITMAP
88
88
88
88
98
68
ENDCHAR
STARTCHAR v
ENCODING 118
SWIDTH 480 0
DWIDTH 6 0
BBX 5 6 0 0
BITMAP
88
88
88
50
50
20
ENDCHAR
STARTCHAR w
ENCODING 119
SWIDTH 480 0
DWIDTH 6 0
BBX 5 6 0 0
BITMAP
88
88
a8
a8
a8
50
ENDCHAR
STARTCHAR x
ENCODING 120
SWIDTH 480 0
DWIDTH 6 0
BBX 5 6 0 0
BITMAP
88
50
20
20
50
88
ENDCHAR
STARTCHAR y
ENCODING 121
SWIDTH 480 0
DWIDTH 6 0
BBX 5 8 0 -2
BITMAP
88
88
88
98
68
08
88
70
ENDCHAR
STARTCHAR z
ENCODING 122
SWIDTH 480 0
DWIDTH 6 0
BBX 5 6 0 0
BITMAP
f8
10
20
40
80
f8
ENDCHAR
STARTCHAR braceleft
ENCODING 123
SWIDTH 480 0
DWIDTH 6 0
BBX 5 9 0 0
BITMAP
18
20
20
20
c0
20
20
20
18
ENDCHAR
STARTCHAR bar
ENCODING 124
SWIDTH 480 0
DWIDTH 6 0
BBX 1 9 2 0
BITMAP
80
80
80
80
80
80
80
80
80
ENDCHAR
STARTCHAR braceright
ENCODING 125
SWIDTH 480 0
DWIDTH 6 0
BBX 5 9 0 0
BITMAP
c0
20
20
20
18
20
20
20
c0
ENDCHAR
STARTCHAR asciitilde
ENCODING 126
SWIDTH 480 0
DWIDTH 6 0
BBX 5 3 0 6
BITMAP
48
a8
90
ENDCHAR
STARTCHAR C177
ENCODING 127
SWIDTH 480 0
DWIDTH 6 0
BBX 0 0 0 0
BITMAP
ENDCHAR
STARTCHAR nobreakspace
ENCODING 160
SWIDTH 480 0
DWIDTH 6 0
BBX 0 0 0 0
BITMAP
ENDCHAR
STARTCHAR exclamdown
ENCODING 161
SWIDTH 480 0
DWIDTH 6 0
BBX 1 9 2 0
BITMAP
80
00
80
80
80
80
80
80
80
ENDCHAR
STARTCHAR cent
ENCODING 162
SWIDTH 480 0
DWIDTH 6 0
BBX 5 8 0 1
BITMAP
20
70
a8
a0
a0
a8
70
20
ENDCHAR
STARTCHAR sterling
ENCODING 163
SWIDTH 480 0
DWIDTH 6 0
BBX 5 9 0 0
BITMAP
30
48
40
40
e0
40
40
48
b0
ENDCHAR
STARTCHAR currency
ENCODING 164
SWIDTH 480 0
DWIDTH 6 0
BBX 5 6 0 1
BITMAP
88
70
50
50
70
88
ENDCHAR
STARTCHAR yen
ENCODING 165
SWIDTH 480 0
DWIDTH 6 0
BBX 5 9 0 0
BITMAP
88
88
50
50
f8
20
f8
20
20
ENDCHAR
STARTCHAR brokenbar
ENCODING 166
SWIDTH 480 0
DWIDTH 6 0
BBX 1 9 2 0
BITMAP
80
80
80
80
00
80
80
80
80
ENDCHAR
STARTCHAR section
ENCODING 167
SWIDTH 480 0
DWIDTH 6 0
BBX 4 10 1 0
BITMAP
60
90
80
60
90
90
60
10
90
60
ENDCHAR
STARTCHAR diaeresis
ENCODING 168
SWIDTH 480 0
DWIDTH 6 0
BBX 5 1 0 8
BITMAP
d8
ENDCHAR
STARTCHAR copyright
ENCODING 169
SWIDTH 480 0
DWIDTH 6 0
BBX 5 9 0 1
BITMAP
70
88
a8
d8
c8
d8
a8
88
70
ENDCHAR
STARTCHAR ordfeminine
ENCODING 170
SWIDTH 480 0
DWIDTH 6 0
BBX 5 7 0 2
BITMAP
70
08
78
88
78
00
f8
ENDCHAR
STARTCHAR guillemotleft
ENCODING 171
SWIDTH 480 0
DWIDTH 6 0
BBX 5 6 0 1
BITMAP
28
50
a0
a0
50
28
ENDCHAR
STARTCHAR notsign
ENCODING 172
SWIDTH 480 0
DWIDTH 6 0
BBX 5 3 0 2
BITMAP
f8
08
08
ENDCHAR
STARTCHAR hyphen
ENCODING 173
SWIDTH 480 0
DWIDTH 6 0
BBX 5 1 0 4
BITMAP
f8
ENDCHAR
STARTCHAR registered
ENCODING 174
SWIDTH 480 0
DWIDTH 6 0
BBX 5 9 0 1
BITMAP
70
88
e8
d8
d8
e8
d8
88
70
ENDCHAR
STARTCHAR macron
ENCODING 175
SWIDTH 480 0
DWIDTH 6 0
BBX 5 1 0 8
BITMAP
f8
ENDCHAR
STARTCHAR degree
ENCODING 176
SWIDTH 480 0
DWIDTH 6 0
BBX 4 4 1 5
BITMAP
60
90
90
60
ENDCHAR
STARTCHAR plusminus
ENCODING 177
SWIDTH 480 0
DWIDTH 6 0
BBX 5 7 0 1
BITMAP
20
20
f8
20
20
00
f8
ENDCHAR
STARTCHAR twosuperior
ENCODING 178
SWIDTH 480 0
DWIDTH 6 0
BBX 3 5 0 5
BITMAP
40
a0
20
40
e0
ENDCHAR
STARTCHAR threesuperior
ENCODING 179
SWIDTH 480 0
DWIDTH 6 0
BBX 3 5 0 5
BITMAP
40
a0
40
20
c0
ENDCHAR
STARTCHAR acute
ENCODING 180
SWIDTH 480 0
DWIDTH 6 0
BBX 2 2 2 8
BITMAP
40
80
ENDCHAR
STARTCHAR mu
ENCODING 181
SWIDTH 480 0
DWIDTH 6 0
BBX 5 7 0 -1
BITMAP
88
88
88
88
98
e8
80
ENDCHAR
STARTCHAR paragraph
ENCODING 182
SWIDTH 480 0
DWIDTH 6 0
BBX 5 9 0 0
BITMAP
78
e8
e8
e8
e8
68
28
28
28
ENDCHAR
STARTCHAR periodcentered
ENCODING 183
SWIDTH 480 0
DWIDTH 6 0
BBX 2 1 2 4
BITMAP
c0
ENDCHAR
STARTCHAR cedilla
ENCODING 184
SWIDTH 480 0
DWIDTH 6 0
BBX 2 2 2 -2
BITMAP
40
80
ENDCHAR
STARTCHAR onesuperior
ENCODING 185
SWIDTH 480 0
DWIDTH 6 0
BBX 3 5 0 5
BITMAP
40
c0
40
40
e0
ENDCHAR
STARTCHAR masculine
ENCODING 186
SWIDTH 480 0
DWIDTH 6 0
BBX 4 6 1 3
BITMAP
60
90
90
60
00
f0
ENDCHAR
STARTCHAR guillemotright
ENCODING 187
SWIDTH 480 0
DWIDTH 6 0
BBX 5 6 0 1
BITMAP
a0
50
28
28
50
a0
ENDCHAR
STARTCHAR onequarter
ENCODING 188
SWIDTH 480 0
DWIDTH 6 0
BBX 5 10 0 0
BITMAP
40
c0
40
40
e0
08
18
28
38
08
ENDCHAR
STARTCHAR onehalf
ENCODING 189
SWIDTH 480 0
DWIDTH 6 0
BBX 5 10 0 0
BITMAP
40
c0
40
40
e0
10
28
08
10
38
ENDCHAR
STARTCHAR threequarters
ENCODING 190
SWIDTH 480 0
DWIDTH 6 0
BBX 5 10 0 0
BITMAP
40
a0
40
20
a0
48
18
28
38
08
ENDCHAR
STARTCHAR questiondown
ENCODING 191
SWIDTH 480 0
DWIDTH 6 0
BBX 5 9 0 0
BITMAP
20
00
20
20
40
80
88
88
70
ENDCHAR
STARTCHAR Agrave
ENCODING 192
SWIDTH 480 0
DWIDTH 6 0
BBX 5 10 0 0
BITMAP
20
10
00
20
50
88
88
f8
88
88
ENDCHAR
STARTCHAR Aacute
ENCODING 193
SWIDTH 480 0
DWIDTH 6 0
BBX 5 10 0 0
BITMAP
10
20
00
20
50
88
88
f8
88
88
ENDCHAR
STARTCHAR Acircumflex
ENCODING 194
SWIDTH 480 0
DWIDTH 6 0
BBX 5 10 0 0
BITMAP
30
48
00
20
50
88
88
f8
88
88
ENDCHAR
STARTCHAR Atilde
ENCODING 195
SWIDTH 480 0
DWIDTH 6 0
BBX 5 10 0 0
BITMAP
28
50
00
20
50
88
88
f8
88
88
ENDCHAR
STARTCHAR Adiaeresis
ENCODING 196
SWIDTH 480 0
DWIDTH 6 0
BBX 5 10 0 0
BITMAP
50
50
00
20
50
88
88
f8
88
88
ENDCHAR
STARTCHAR Aring
ENCODING 197
SWIDTH 480 0
DWIDTH 6 0
BBX 5 10 0 0
BITMAP
20
50
20
20
50
88
88
f8
88
88
ENDCHAR
STARTCHAR AE
ENCODING 198
SWIDTH 480 0
DWIDTH 6 0
BBX 5 9 0 0
BITMAP
58
a0
a0
a0
b0
e0
a0
a0
b8
ENDCHAR
STARTCHAR Ccedilla
ENCODING 199
SWIDTH 480 0
DWIDTH 6 0
BBX 5 11 0 -2
BITMAP
70
88
80
80
80
80
80
88
70
20
40
ENDCHAR
STARTCHAR Egrave
ENCODING 200
SWIDTH 480 0
DWIDTH 6 0
BBX 5 10 0 0
BITMAP
20
10
00
f8
80
80
f0
80
80
f8
ENDCHAR
STARTCHAR Eacute
ENCODING 201
SWIDTH 480 0
DWIDTH 6 0
BBX 5 10 0 0
BITMAP
10
20
00
f8
80
80
f0
80
80
f8
ENDCHAR
STARTCHAR Ecircumflex
ENCODING 202
SWIDTH 480 0
DWIDTH 6 0
BBX 5 10 0 0
BITMAP
60
90
00
f8
80
80
f0
80
80
f8
ENDCHAR
STARTCHAR Ediaeresis
ENCODING 203
SWIDTH 480 0
DWIDTH 6 0
BBX 5 10 0 0
BITMAP
50
50
00
f8
80
80
f0
80
80
f8
ENDCHAR
STARTCHAR Igrave
ENCODING 204
SWIDTH 480 0
DWIDTH 6 0
BBX 5 10 0 0
BITMAP
20
10
00
f8
20
20
20
20
20
f8
ENDCHAR
STARTCHAR Iacute
ENCODING 205
SWIDTH 480 0
DWIDTH 6 0
BBX 5 10 0 0
BITMAP
10
20
00
f8
20
20
20
20
20
f8
ENDCHAR
STARTCHAR Icircumflex
ENCODING 206
SWIDTH 480 0
DWIDTH 6 0
BBX 5 10 0 0
BITMAP
30
48
00
f8
20
20
20
20
20
f8
ENDCHAR
STARTCHAR Idiaeresis
ENCODING 207
SWIDTH 480 0
DWIDTH 6 0
BBX 5 10 0 0
BITMAP
50
50
00
f8
20
20
20
20
20
f8
ENDCHAR
STARTCHAR ETH
ENCODING 208
SWIDTH 480 0
DWIDTH 6 0
BBX 5 9 0 0
BITMAP
f0
48
48
48
e8
48
48
48
f0
ENDCHAR
STARTCHAR Ntilde
ENCODING 209
SWIDTH 480 0
DWIDTH 6 0
BBX 5 10 0 0
BITMAP
28
50
00
88
88
c8
a8
98
88
88
ENDCHAR
STARTCHAR Ograve
ENCODING 210
SWIDTH 480 0
DWIDTH 6 0
BBX 5 10 0 0
BITMAP
20
10
00
70
88
88
88
88
88
70
ENDCHAR
STARTCHAR Oacute
ENCODING 211
SWIDTH 480 0
DWIDTH 6 0
BBX 5 10 0 0
BITMAP
10
20
00
70
88
88
88
88
88
70
ENDCHAR
STARTCHAR Ocircumflex
ENCODING 212
SWIDTH 480 0
DWIDTH 6 0
BBX 5 10 0 0
BITMAP
30
48
00
70
88
88
88
88
88
70
ENDCHAR
STARTCHAR Otilde
ENCODING 213
SWIDTH 480 0
DWIDTH 6 0
BBX 5 10 0 0
BITMAP
28
50
00
70
88
88
88
88
88
70
ENDCHAR
STARTCHAR Odiaeresis
ENCODING 214
SWIDTH 480 0
DWIDTH 6 0
BBX 5 10 0 0
BITMAP
50
50
00
70
88
88
88
88
88
70
ENDCHAR
STARTCHAR multiply
ENCODING 215
SWIDTH 480 0
DWIDTH 6 0
BBX 5 5 0 1
BITMAP
88
50
20
50
88
ENDCHAR
STARTCHAR Ooblique
ENCODING 216
SWIDTH 480 0
DWIDTH 6 0
BBX 5 11 0 -1
BITMAP
08
70
98
98
a8
a8
a8
c8
c8
70
80
ENDCHAR
STARTCHAR Ugrave
ENCODING 217
SWIDTH 480 0
DWIDTH 6 0
BBX 5 10 0 0
BITMAP
20
10
00
88
88
88
88
88
88
70
ENDCHAR
STARTCHAR Uacute
ENCODING 218
SWIDTH 480 0
DWIDTH 6 0
BBX 5 10 0 0
BITMAP
10
20
00
88
88
88
88
88
88
70
ENDCHAR
STARTCHAR Ucircumflex
ENCODING 219
SWIDTH 480 0
DWIDTH 6 0
BBX 5 10 0 0
BITMAP
30
48
00
88
88
88
88
88
88
70
ENDCHAR
STARTCHAR Udiaeresis
ENCODING 220
SWIDTH 480 0
DWIDTH 6 0
BBX 5 10 0 0
BITMAP
50
50
00
88
88
88
88
88
88
70
ENDCHAR
STARTCHAR Yacute
ENCODING 221
SWIDTH 480 0
DWIDTH 6 0
BBX 5 10 0 0
BITMAP
10
20
00
88
88
50
20
20
20
20
ENDCHAR
STARTCHAR THORN
ENCODING 222
SWIDTH 480 0
DWIDTH 6 0
BBX 5 9 0 0
BITMAP
80
f0
88
88
88
f0
80
80
80
ENDCHAR
STARTCHAR ssharp
ENCODING 223
SWIDTH 480 0
DWIDTH 6 0
BBX 5 9 0 -1
BITMAP
70
88
88
f0
88
88
c8
b0
80
ENDCHAR
STARTCHAR agrave
ENCODING 224
SWIDTH 480 0
DWIDTH 6 0
BBX 5 10 0 0
BITMAP
20
10
00
00
70
08
78
88
98
68
ENDCHAR
STARTCHAR aacute
ENCODING 225
SWIDTH 480 0
DWIDTH 6 0
BBX 5 10 0 0
BITMAP
10
20
00
00
70
08
78
88
98
68
ENDCHAR
STARTCHAR acircumflex
ENCODING 226
SWIDTH 480 0
DWIDTH 6 0
BBX 5 10 0 0
BITMAP
30
48
00
00
70
08
78
88
98
68
ENDCHAR
STARTCHAR atilde
ENCODING 227
SWIDTH 480 0
DWIDTH 6 0
BBX 5 10 0 0
BITMAP
28
50
00
00
70
08
78
88
98
68
ENDCHAR
STARTCHAR adiaeresis
ENCODING 228
SWIDTH 480 0
DWIDTH 6 0
BBX 5 10 0 0
BITMAP
50
50
00
00
70
08
78
88
98
68
ENDCHAR
STARTCHAR aring
ENCODING 229
SWIDTH 480 0
DWIDTH 6 0
BBX 5 10 0 0
BITMAP
30
48
30
00
70
08
78
88
98
68
ENDCHAR
STARTCHAR ae
ENCODING 230
SWIDTH 480 0
DWIDTH 6 0
BBX 5 6 0 0
BITMAP
70
28
70
a0
a8
50
ENDCHAR
STARTCHAR ccedilla
ENCODING 231
SWIDTH 480 0
DWIDTH 6 0
BBX 5 8 0 -2
BITMAP
70
88
80
80
88
70
20
40
ENDCHAR
STARTCHAR egrave
ENCODING 232
SWIDTH 480 0
DWIDTH 6 0
BBX 5 10 0 0
BITMAP
20
10
00
00
70
88
f8
80
88
70
ENDCHAR
STARTCHAR eacute
ENCODING 233
SWIDTH 480 0
DWIDTH 6 0
BBX 5 10 0 0
BITMAP
10
20
00
00
70
88
f8
80
88
70
ENDCHAR
STARTCHAR ecircumflex
ENCODING 234
SWIDTH 480 0
DWIDTH 6 0
BBX 5 10 0 0
BITMAP
30
48
00
00
70
88
f8
80
88
70
ENDCHAR
STARTCHAR ediaeresis
ENCODING 235
SWIDTH 480 0
DWIDTH 6 0
BBX 5 10 0 0
BITMAP
50
50
00
00
70
88
f8
80
88
70
ENDCHAR
STARTCHAR igrave
ENCODING 236
SWIDTH 480 0
DWIDTH 6 0
BBX 5 10 0 0
BITMAP
20
10
00
00
60
20
20
20
20
f8
ENDCHAR
STARTCHAR iacute
ENCODING 237
SWIDTH 480 0
DWIDTH 6 0
BBX 5 10 0 0
BITMAP
10
20
00
00
60
20
20
20
20
f8
ENDCHAR
STARTCHAR icircumflex
ENCODING 238
SWIDTH 480 0
DWIDTH 6 0
BBX 5 10 0 0
BITMAP
30
48
00
00
60
20
20
20
20
f8
ENDCHAR
STARTCHAR idiaeresis
ENCODING 239
SWIDTH 480 0
DWIDTH 6 0
BBX 5 10 0 0
BITMAP
50
50
00
00
60
20
20
20
20
f8
ENDCHAR
STARTCHAR eth
ENCODING 240
SWIDTH 480 0
DWIDTH 6 0
BBX 5 10 0 0
BITMAP
50
20
60
10
70
88
88
88
88
70
ENDCHAR
STARTCHAR ntilde
ENCODING 241
SWIDTH 480 0
DWIDTH 6 0
BBX 5 10 0 0
BITMAP
28
50
00
00
b0
c8
88
88
88
88
ENDCHAR
STARTCHAR ograve
ENCODING 242
SWIDTH 480 0
DWIDTH 6 0
BBX 5 10 0 0
BITMAP
20
10
00
00
70
88
88
88
88
70
ENDCHAR
STARTCHAR oacute
ENCODING 243
SWIDTH 480 0
DWIDTH 6 0
BBX 5 10 0 0
BITMAP
10
20
00
00
70
88
88
88
88
70
ENDCHAR
STARTCHAR ocircumflex
ENCODING 244
SWIDTH 480 0
DWIDTH 6 0
BBX 5 10 0 0
BITMAP
30
48
00
00
70
88
88
88
88
70
ENDCHAR
STARTCHAR otilde
ENCODING 245
SWIDTH 480 0
DWIDTH 6 0
BBX 5 10 0 0
BITMAP
28
50
00
00
70
88
88
88
88
70
ENDCHAR
STARTCHAR odiaeresis
ENCODING 246
SWIDTH 480 0
DWIDTH 6 0
BBX 5 10 0 0
BITMAP
50
50
00
00
70
88
88
88
88
70
ENDCHAR
STARTCHAR division
ENCODING 247
SWIDTH 480 0
DWIDTH 6 0
BBX 5 7 0 1
BITMAP
20
20
00
f8
00
20
20
ENDCHAR
STARTCHAR oslash
ENCODING 248
SWIDTH 480 0
DWIDTH 6 0
BBX 5 8 0 -1
BITMAP
08
70
98
a8
a8
c8
70
80
ENDCHAR
STARTCHAR ugrave
ENCODING 249
SWIDTH 480 0
DWIDTH 6 0
BBX 5 10 0 0
BITMAP
20
10
00
00
88
88
88
88
88
78
ENDCHAR
STARTCHAR uacute
ENCODING 250
SWIDTH 480 0
DWIDTH 6 0
BBX 5 10 0 0
BITMAP
10
20
00
00
88
88
88
88
88
78
ENDCHAR
STARTCHAR ucircumflex
ENCODING 251
SWIDTH 480 0
DWIDTH 6 0
BBX 5 10 0 0
BITMAP
30
48
00
00
88
88
88
88
88
78
ENDCHAR
STARTCHAR udiaeresis
ENCODING 252
SWIDTH 480 0
DWIDTH 6 0
BBX 5 10 0 0
BITMAP
50
50
00
00
88
88
88
88
88
78
ENDCHAR
STARTCHAR yacute
ENCODING 253
SWIDTH 480 0
DWIDTH 6 0
BBX 5 12 0 -2
BITMAP
10
20
00
00
88
88
88
98
68
08
88
70
ENDCHAR
STARTCHAR thorn
ENCODING 254
SWIDTH 480 0
DWIDTH 6 0
BBX 5 10 0 -2
BITMAP
80
80
b0
c8
88
88
c8
b0
80
80
ENDCHAR
STARTCHAR ydiaeresis
ENCODING 255
SWIDTH 480 0
DWIDTH 6 0
BBX 5 12 0 -2
BITMAP
50
50
00
00
88
88
88
98
68
08
88
70
ENDCHAR
ENDFONT
